<svg width="102" height="29" viewBox="0 0 102 29" fill="none" xmlns="http://www.w3.org/2000/svg">
<path d="M9.624 21.1C9.464 20.7 9.232 20.172 8.928 19.516C8.64 18.86 8.312 18.148 7.944 17.38C7.576 16.596 7.2 15.796 6.816 14.98C6.432 14.148 6.064 13.372 5.712 12.652C5.36 11.932 5.048 11.3 4.776 10.756C4.504 10.212 4.304 9.828 4.176 9.604C3.968 11.604 3.8 13.78 3.672 16.132C3.56 18.468 3.456 20.924 3.36 23.5H1.752C1.896 20.476 2.056 17.58 2.232 14.812C2.424 12.044 2.656 9.396 2.928 6.868H4.368C4.848 7.668 5.36 8.596 5.904 9.652C6.448 10.692 6.984 11.78 7.512 12.916C8.056 14.036 8.576 15.148 9.072 16.252C9.584 17.34 10.032 18.324 10.416 19.204C10.8 18.324 11.24 17.34 11.736 16.252C12.248 15.148 12.768 14.036 13.296 12.916C13.84 11.78 14.384 10.692 14.928 9.652C15.472 8.596 15.984 7.668 16.464 6.868H17.832C18.104 9.396 18.328 12.044 18.504 14.812C18.696 17.58 18.864 20.476 19.008 23.5H17.352C17.256 20.924 17.144 18.468 17.016 16.132C16.904 13.78 16.744 11.604 16.536 9.604C16.408 9.828 16.208 10.212 15.936 10.756C15.664 11.3 15.352 11.932 15 12.652C14.648 13.372 14.28 14.148 13.896 14.98C13.512 15.796 13.136 16.596 12.768 17.38C12.4 18.148 12.064 18.86 11.76 19.516C11.472 20.172 11.248 20.7 11.088 21.1H9.624ZM22.0856 17.284C22.0856 16.196 22.2376 15.252 22.5416 14.452C22.8616 13.636 23.2696 12.956 23.7656 12.412C24.2776 11.868 24.8536 11.468 25.4936 11.212C26.1496 10.94 26.8216 10.804 27.5096 10.804C29.0296 10.804 30.2376 11.3 31.1336 12.292C32.0456 13.284 32.5016 14.812 32.5016 16.876C32.5016 17.004 32.4936 17.132 32.4776 17.26C32.4776 17.388 32.4696 17.508 32.4536 17.62H23.7416C23.7896 19.14 24.1656 20.308 24.8696 21.124C25.5736 21.94 26.6936 22.348 28.2296 22.348C29.0776 22.348 29.7496 22.268 30.2456 22.108C30.7416 21.948 31.1016 21.812 31.3256 21.7L31.6136 23.044C31.3896 23.172 30.9656 23.324 30.3416 23.5C29.7336 23.676 29.0136 23.764 28.1816 23.764C27.0936 23.764 26.1656 23.604 25.3976 23.284C24.6296 22.964 23.9976 22.516 23.5016 21.94C23.0056 21.364 22.6456 20.684 22.4216 19.9C22.1976 19.1 22.0856 18.228 22.0856 17.284ZM30.8936 16.3C30.8616 15.004 30.5576 13.996 29.9816 13.276C29.4056 12.556 28.5896 12.196 27.5336 12.196C26.9736 12.196 26.4696 12.308 26.0216 12.532C25.5896 12.756 25.2056 13.06 24.8696 13.444C24.5496 13.812 24.2936 14.244 24.1016 14.74C23.9256 15.236 23.8216 15.756 23.7896 16.3H30.8936ZM35.9781 11.524C36.4421 11.396 37.0661 11.252 37.8501 11.092C38.6341 10.932 39.5941 10.852 40.7301 10.852C41.6741 10.852 42.4581 10.988 43.0821 11.26C43.7221 11.532 44.2261 11.924 44.5941 12.436C44.9781 12.932 45.2501 13.532 45.4101 14.236C45.5701 14.94 45.6501 15.716 45.6501 16.564V23.5H44.0901V17.068C44.0901 16.188 44.0261 15.444 43.8981 14.836C43.7861 14.228 43.5861 13.732 43.2981 13.348C43.0261 12.964 42.6581 12.692 42.1941 12.532C41.7461 12.356 41.1781 12.268 40.4901 12.268C39.7541 12.268 39.1141 12.308 38.5701 12.388C38.0421 12.468 37.6981 12.54 37.5381 12.604V23.5H35.9781V11.524ZM59.1701 23.068C58.7061 23.196 58.0821 23.34 57.2981 23.5C56.5141 23.66 55.5541 23.74 54.4181 23.74C53.4901 23.74 52.7141 23.604 52.0901 23.332C51.4661 23.06 50.9621 22.676 50.5781 22.18C50.1941 21.684 49.9141 21.084 49.7381 20.38C49.5781 19.676 49.4981 18.9 49.4981 18.052V11.092H51.0581V17.548C51.0581 18.428 51.1221 19.172 51.2501 19.78C51.3781 20.388 51.5861 20.884 51.8741 21.268C52.1621 21.636 52.5301 21.908 52.9781 22.084C53.4421 22.244 54.0021 22.324 54.6581 22.324C55.3941 22.324 56.0341 22.284 56.5781 22.204C57.1221 22.124 57.4661 22.052 57.6101 21.988V11.092H59.1701V23.068Z" fill="#333333"/>
<path d="M79.5 7.75C79.5 7.94891 79.579 8.13968 79.7197 8.28033C79.8603 8.42098 80.0511 8.5 80.25 8.5H99.75C99.9489 8.5 100.14 8.42098 100.28 8.28033C100.421 8.13968 100.5 7.94891 100.5 7.75C100.5 7.55109 100.421 7.36032 100.28 7.21967C100.14 7.07902 99.9489 7 99.75 7H80.25C80.0511 7 79.8603 7.07902 79.7197 7.21967C79.579 7.36032 79.5 7.55109 79.5 7.75ZM83.25 13.75H99.75C99.9489 13.75 100.14 13.829 100.28 13.9697C100.421 14.1103 100.5 14.3011 100.5 14.5C100.5 14.6989 100.421 14.8897 100.28 15.0303C100.14 15.171 99.9489 15.25 99.75 15.25H83.25C83.0511 15.25 82.8603 15.171 82.7197 15.0303C82.579 14.8897 82.5 14.6989 82.5 14.5C82.5 14.3011 82.579 14.1103 82.7197 13.9697C82.8603 13.829 83.0511 13.75 83.25 13.75ZM90 20.5H99.75C99.9489 20.5 100.14 20.579 100.28 20.7197C100.421 20.8603 100.5 21.0511 100.5 21.25C100.5 21.4489 100.421 21.6397 100.28 21.7803C100.14 21.921 99.9489 22 99.75 22H90C89.8011 22 89.6103 21.921 89.4697 21.7803C89.329 21.6397 89.25 21.4489 89.25 21.25C89.25 21.0511 89.329 20.8603 89.4697 20.7197C89.6103 20.579 89.8011 20.5 90 20.5Z" fill="#333333"/>
</svg>
