<svg width="30" height="30" viewBox="0 0 30 30" fill="none" xmlns="http://www.w3.org/2000/svg">
<path d="M24.375 0C25.9245 0 27.2493 0.55013 28.3496 1.65039C29.4499 2.75065 30 4.07552 30 5.625V24.375C30 25.9245 29.4499 27.2493 28.3496 28.3496C27.2493 29.4499 25.9245 30 24.375 30H5.625C4.07552 30 2.75065 29.4499 1.65039 28.3496C0.55013 27.2493 0 25.9245 0 24.375V5.625C0 4.07552 0.55013 2.75065 1.65039 1.65039C2.75065 0.55013 4.07552 0 5.625 0H24.375ZM9.74609 7.16797H2.5V22.5391H9.96094C11.4844 22.5391 12.7669 22.1647 13.8086 21.416C14.8503 20.6673 15.3711 19.5573 15.3711 18.0859C15.3711 16.0286 14.4401 14.7266 12.5781 14.1797C13.9714 13.5026 14.668 12.4349 14.668 10.9766C14.668 10.2344 14.541 9.60612 14.2871 9.0918C14.0332 8.57747 13.6654 8.18359 13.1836 7.91016C12.7018 7.63672 12.1875 7.44466 11.6406 7.33398C11.0938 7.22331 10.4622 7.16797 9.74609 7.16797ZM9.31641 13.3789H5.87891V9.78516H9.0625C10.612 9.78516 11.3867 10.3711 11.3867 11.543C11.3867 12.7669 10.6966 13.3789 9.31641 13.3789ZM9.49219 19.9219H5.87891V15.6836H9.57031C11.1849 15.6836 11.9922 16.4193 11.9922 17.8906C11.9922 19.2448 11.1589 19.9219 9.49219 19.9219ZM22.1875 20.5469C21.3021 20.5469 20.625 20.2995 20.1562 19.8047C19.6875 19.3099 19.4531 18.6133 19.4531 17.7148H27.4805C27.4935 17.5846 27.5 17.3893 27.5 17.1289C27.5 15.4102 27.015 13.9746 26.0449 12.8223C25.0749 11.6699 23.75 11.0938 22.0703 11.0938C20.4036 11.0938 19.0365 11.6536 17.9688 12.7734C16.901 13.8932 16.3672 15.2995 16.3672 16.9922C16.3672 18.75 16.8815 20.1628 17.9102 21.2305C18.9388 22.2982 20.3255 22.832 22.0703 22.832C24.7396 22.832 26.4779 21.5885 27.2852 19.1016H24.5898C24.4466 19.5443 24.1374 19.8958 23.6621 20.1562C23.1868 20.4167 22.6953 20.5469 22.1875 20.5469ZM21.9922 13.3984C23.4635 13.3984 24.2708 14.1927 24.4141 15.7812H19.4531C19.5052 15.0521 19.7591 14.4727 20.2148 14.043C20.6706 13.6133 21.263 13.3984 21.9922 13.3984ZM18.8281 8.20312H25.0586V9.70703H18.8281V8.20312Z" fill="#699BF7"/>
</svg>
