<svg width="30" height="30" viewBox="0 0 30 30" fill="none" xmlns="http://www.w3.org/2000/svg">
<path d="M11.8612 0.00515381L12.7725 0.00140381H17.2275L18.14 0.00515381L19.2825 0.0176538L19.8237 0.0264038L20.3463 0.0401538L20.85 0.0576538L21.335 0.0776538L21.8025 0.103904L22.2525 0.135154L22.6838 0.172654L23.1 0.213904C25.275 0.458904 26.7663 0.983904 27.8913 2.1089C29.0162 3.2339 29.5413 4.7239 29.7863 6.90015L29.8288 7.3164L29.865 7.7489L29.8962 8.1989L29.9212 8.66515L29.9525 9.40016L29.9675 9.91265L29.9837 10.7177L29.995 11.8614L30 13.0864L29.9988 17.2277L29.995 18.1402L29.9825 19.2827L29.9738 19.8239L29.96 20.3464L29.9425 20.8502L29.9225 21.3352L29.8962 21.8027L29.865 22.2527L29.8275 22.6839L29.7863 23.1002C29.5413 25.2752 29.0162 26.7664 27.8913 27.8914C26.7663 29.0164 25.2762 29.5414 23.1 29.7864L22.6838 29.8289L22.2513 29.8652L21.8013 29.8964L21.335 29.9214L20.6 29.9527L20.0875 29.9677L19.2825 29.9839L18.1388 29.9952L16.9137 30.0002L12.7725 29.9989L11.86 29.9952L10.7175 29.9827L10.1762 29.9739L9.65375 29.9602L9.15 29.9427L8.665 29.9227L8.1975 29.8964L7.7475 29.8652L7.31625 29.8277L6.9 29.7864C4.725 29.5414 3.23375 29.0164 2.10875 27.8914C0.98375 26.7664 0.45875 25.2764 0.21375 23.1002L0.17125 22.6839L0.135 22.2514L0.10375 21.8014L0.07875 21.3352L0.0475 20.6002L0.0325 20.0877L0.01625 19.2827L0.005 18.1389L0 16.9139L0.00125 12.7727L0.005 11.8602L0.0175 10.7177L0.02625 10.1764L0.04 9.6539L0.0575 9.15016L0.0775 8.66515L0.10375 8.19765L0.135 7.74765L0.1725 7.3164L0.21375 6.90015C0.45875 4.72515 0.98375 3.2339 2.10875 2.1089C3.23375 0.983904 4.72375 0.458904 6.9 0.213904L7.31625 0.171404L7.74875 0.135154L8.19875 0.103904L8.665 0.0789038L9.4 0.0476538L9.9125 0.0326538L10.7175 0.0164038L11.8612 0.00515381ZM8.4875 9.12516H5.0625C5.225 16.9252 9.125 21.6127 15.9625 21.6127H16.35V17.1502C18.8625 17.4002 20.7625 19.2377 21.525 21.6127H25.075C24.1 18.0627 21.5375 16.1002 19.9375 15.3502C21.5375 14.4252 23.7875 12.1752 24.325 9.12516H21.1C20.4 11.6002 18.325 13.8502 16.35 14.0627V9.12516H13.125V17.7752C11.125 17.2752 8.6 14.8502 8.4875 9.12516Z" fill="#699BF7"/>
</svg>
